<svg width="28" height="28" viewBox="0 0 28 28" fill="none" xmlns="http://www.w3.org/2000/svg">
<path d="M19.3477 20.4864C19.9513 20.4864 20.5303 20.7262 20.9571 21.1531C21.384 21.5799 21.6238 22.1589 21.6238 22.7625C21.6238 23.3662 21.384 23.9451 20.9571 24.372C20.5303 24.7989 19.9513 25.0387 19.3477 25.0387C18.0844 25.0387 17.0715 24.0144 17.0715 22.7625C17.0715 21.4993 18.0844 20.4864 19.3477 20.4864ZM1.13867 2.27744H4.86013L5.92991 4.55356H22.7618C23.0637 4.55356 23.3531 4.67346 23.5666 4.88689C23.78 5.10032 23.8999 5.38979 23.8999 5.69162C23.8999 5.88509 23.843 6.07856 23.7633 6.26065L19.6891 13.6239C19.3021 14.3181 18.551 14.7961 17.6975 14.7961H9.21891L8.19465 16.6512L8.16051 16.7877C8.16051 16.8632 8.19049 16.9355 8.24384 16.9889C8.2972 17.0423 8.36957 17.0722 8.44503 17.0722H21.6238V19.3484H7.96704C6.70379 19.3484 5.69092 18.3241 5.69092 17.0722C5.69092 16.6739 5.79334 16.2984 5.96405 15.9797L7.51182 13.1914L3.41479 4.55356H1.13867V2.27744ZM7.96704 20.4864C8.57071 20.4864 9.14965 20.7262 9.5765 21.1531C10.0034 21.5799 10.2432 22.1589 10.2432 22.7625C10.2432 23.3662 10.0034 23.9451 9.5765 24.372C9.14965 24.7989 8.57071 25.0387 7.96704 25.0387C6.70379 25.0387 5.69092 24.0144 5.69092 22.7625C5.69092 21.4993 6.70379 20.4864 7.96704 20.4864ZM18.2096 12.52L21.3734 6.82968H6.98831L9.67413 12.52H18.2096Z" fill="black"/>
</svg>
