<svg width="28" height="28" viewBox="0 0 28 28" fill="none" xmlns="http://www.w3.org/2000/svg">
<path d="M19.3473 20.4864C18.084 20.4864 17.0712 21.4993 17.0712 22.7626C17.0712 23.3662 17.311 23.9452 17.7378 24.372C18.1647 24.7989 18.7436 25.0387 19.3473 25.0387C19.951 25.0387 20.5299 24.7989 20.9567 24.372C21.3836 23.9452 21.6234 23.3662 21.6234 22.7626C21.6234 21.4993 20.5992 20.4864 19.3473 20.4864ZM1.13831 2.27745V4.55357H3.41443L7.51145 13.1915L5.96369 15.9797C5.79298 16.2984 5.69055 16.6739 5.69055 17.0722C5.69055 17.6759 5.93036 18.2549 6.35721 18.6817C6.78407 19.1086 7.36301 19.3484 7.96667 19.3484H21.6234V17.0722H8.44466C8.3692 17.0722 8.29683 17.0423 8.24348 16.9889C8.19012 16.9356 8.16014 16.8632 8.16014 16.7877C8.16014 16.7308 8.17153 16.6853 8.19429 16.6512L9.21854 14.7961H17.6971C18.5506 14.7961 19.3018 14.3181 19.6887 13.6239L23.763 6.26067C23.8426 6.07858 23.8995 5.88511 23.8995 5.69163C23.8995 5.3898 23.7796 5.10033 23.5662 4.8869C23.3528 4.67348 23.0633 4.55357 22.7615 4.55357H5.92954L4.85977 2.27745H1.13831ZM7.96667 20.4864C6.70343 20.4864 5.69055 21.4993 5.69055 22.7626C5.69055 23.3662 5.93036 23.9452 6.35721 24.372C6.78407 24.7989 7.36301 25.0387 7.96667 25.0387C8.57034 25.0387 9.14928 24.7989 9.57614 24.372C10.003 23.9452 10.2428 23.3662 10.2428 22.7626C10.2428 21.4993 9.21854 20.4864 7.96667 20.4864Z" fill="#04AFA1"/>
</svg>
