<svg width="53" height="53" viewBox="0 3 30 30" fill="none" xmlns="http://www.w3.org/2000/svg">
<path d="M8.6517 18.4749C5.46948 17.6792 0.298934 19.668 5.46955 21.6567C7.45847 26.8276 9.44702 21.6567 8.6517 18.4749Z" stroke="white" stroke-width="2" stroke-linecap="round" stroke-linejoin="round"/>
<path d="M12.6463 5.76416C9.88812 5.75679 6.32834 6.62867 5.87997 7.8611C5.55498 8.75452 7.24387 9.94309 9.39577 10.5711" stroke="white" stroke-width="2" stroke-linecap="round" stroke-linejoin="round"/>
<path d="M21.3624 14.48C21.3698 17.2382 20.4979 20.798 19.2655 21.2464C18.372 21.5714 17.1835 19.8825 16.5555 17.7306" stroke="white" stroke-width="2" stroke-linecap="round" stroke-linejoin="round"/>
<path d="M21.3746 14.4928C25.1226 11.0813 22.5703 4.55145 22.5703 4.55145C22.5703 4.55145 15.8107 2.56489 12.6287 5.7469C9.44673 8.92885 8.65125 18.4748 8.65125 18.4748C8.65125 18.4748 17.6266 17.9042 21.3746 14.4928Z" stroke="white" stroke-width="2" stroke-linecap="round" stroke-linejoin="round"/>
<path d="M21.3792 14.4973C21.3792 14.4973 17.6006 13.9007 15.413 11.7131C13.2254 9.5255 12.6288 5.7469 12.6288 5.7469" stroke="white" stroke-width="2" stroke-linecap="round" stroke-linejoin="round"/>
<path d="M18.1977 8.92886C18.637 9.3682 19.3493 9.3682 19.7887 8.92886C20.228 8.48952 20.228 7.77721 19.7887 7.33787C19.3493 6.89853 18.637 6.89853 18.1977 7.33787C17.7583 7.77721 17.7583 8.48952 18.1977 8.92886Z" fill="white"/>
<path d="M23.0624 11.7814C22.7582 12.7713 22.2308 13.7134 21.3746 14.4928C20.4479 15.3362 19.2017 16.006 17.8506 16.5364" stroke="white" stroke-width="2" stroke-linecap="round" stroke-linejoin="round"/>
<path d="M15.1876 4.30672C14.2327 4.58128 13.3412 5.03458 12.6289 5.74689C11.9624 6.41334 11.4006 7.3589 10.929 8.4375" stroke="white" stroke-width="2" stroke-linecap="round" stroke-linejoin="round"/>
</svg>
