<svg width="27" height="27" viewBox="0 0 27 27" fill="none" xmlns="http://www.w3.org/2000/svg">
<path d="M1.12512 24.75C1.12512 25.3575 1.63137 25.875 2.25012 25.875H16.8751C17.5051 25.875 18.0001 25.3575 18.0001 24.75V23.625H1.12512V24.75ZM9.56262 10.125C5.34387 10.125 1.12512 12.375 1.12512 16.875H18.0001C18.0001 12.375 13.7814 10.125 9.56262 10.125ZM4.07262 14.625C5.32137 12.8813 7.97637 12.375 9.56262 12.375C11.1489 12.375 13.8039 12.8813 15.0526 14.625H4.07262ZM1.12512 19.125H18.0001V21.375H1.12512V19.125ZM20.2501 5.62503V1.12503H18.0001V5.62503H12.3751L12.6339 7.87503H23.3889L21.8139 23.625H20.2501V25.875H22.1851C23.1301 25.875 23.9064 25.1438 24.0189 24.2213L25.8751 5.62503H20.2501Z" fill="black"/>
</svg>
