<svg width="27" height="27" viewBox="0 0 27 27" fill="none" xmlns="http://www.w3.org/2000/svg">
<path d="M20.3175 25.875H22.185C23.13 25.875 23.9062 25.1438 24.0187 24.2213L25.875 5.68128H20.25V1.12503H18.0337V5.68128H12.4425L12.78 8.31378C14.7037 8.84253 16.5037 9.79878 17.5837 10.8563C19.2037 12.4538 20.3175 14.1075 20.3175 16.8075V25.875ZM1.125 24.75V23.625H18.0337V24.75C18.0337 25.3575 17.5275 25.875 16.875 25.875H2.25C1.63125 25.875 1.125 25.3575 1.125 24.75ZM18.0337 16.875C18.0337 7.87503 1.125 7.87503 1.125 16.875H18.0337ZM1.125 19.125H18V21.375H1.125V19.125Z" fill="#05AB9E"/>
</svg>
